# xmcd CD database file
#
# Track frame offsets:
#	150
#	17297
#	34681
#	47129
#	54387
#	62989
#	79824
#	96065
#	112135
#	129976
#	143813
#	152864
#	162291
#	172936
#	184175
#	200308
#	212369
#	230515
#	241425
#	252123
#	263577
#
# Disc length: 3633 seconds
#
# Revision: 0
# Processed by: cddbd v1.5.2PL0 Copyright (c) Steve Scherf et al.
# Submitted via: CDex 1.51
#
DISCID=150e2f15
DTITLE=Vladimir Babin - JAZZYLAND
DYEAR=1900
DGENRE=Jazz
TTITLE0=BABIN: JAZZYLAND
TTITLE1=PETERSON: BALLAD TO THE EAST
TTITLE2=BRUBECK: IT'S A RAGGY WALTZ
TTITLE3=HUGH - FIELDS: I'M IN THE MOOD FOR LOVE
TTITLE4=KENTON: EAGER BEAVER
TTITLE5=BRUBECK: DANSE DUET
TTITLE6=BEIDERBECKE: IN A MIST
TTITLE7=WASHINGTON - CARMICHAEL: THE NEARNESS OF YOU
TTITLE8=BRUBECK: ONE MOMENT WORTH YEARS
TTITLE9=ALLEN - BROWN: GRAVY WALTZ
TTITLE10=HARBURG - ARLEN: OVER THE RAINBOW
TTITLE11=PETERSON: LAURENTIDE WALTZ
TTITLE12=GORDON - REVEL: THERE'S A LULL IN MY LIFE
TTITLE13=BRUBECK: BLUE RONDO A LA TURK
TTITLE14=PETERSON: LAND OF A MISTY GIANTS
TTITLE15=HAGEN: HARLEM NOCTURNO
TTITLE16=BRUBECK: WEEP NO MORE
TTITLE17=MENDEL: THE SHADOW OF YOUR SMILE
TTITLE18=THIELEMANS: BLUESETTE
TTITLE19=HART - RODGERS - ISN'T IT ROMANTIC
TTITLE20=GOULD: BOOGIE-WOGIE ETUDE
EXTD=
EXTT0=
EXTT1=
EXTT2=
EXTT3=
EXTT4=
EXTT5=
EXTT6=
EXTT7=
EXTT8=
EXTT9=
EXTT10=
EXTT11=
EXTT12=
EXTT13=
EXTT14=
EXTT15=
EXTT16=
EXTT17=
EXTT18=
EXTT19=
EXTT20=
PLAYORDER=
